<?xml version="1.0" encoding="utf-8"?>
<!-- Generator: Adobe Illustrator 26.0.3, SVG Export Plug-In . SVG Version: 6.00 Build 0)  -->
<svg version="1.1" id="Layer_1" xmlns="http://www.w3.org/2000/svg" xmlns:xlink="http://www.w3.org/1999/xlink" x="0px" y="0px"
	 viewBox="0 0 375 423" style="enable-background:new 0 0 375 423;" xml:space="preserve">
<style type="text/css">
	.st0{fill:none;}
	.st1{fill:#010101;}
	.st2{fill:url(#Path_2_00000007403606856112073440000014399749680821232826_);}
	.st3{fill-rule:evenodd;clip-rule:evenodd;fill:url(#Path_3_00000176035778808669536730000005494481741284360085_);}
	.st4{display:none;fill-rule:evenodd;clip-rule:evenodd;fill:#DD1F26;}
	.st5{display:none;fill:#E52165;}
	.st6{display:none;fill-rule:evenodd;clip-rule:evenodd;fill:#3C7DC0;}
	.st7{display:none;fill-rule:evenodd;clip-rule:evenodd;fill:#5A52A3;}
</style>
<g transform="translate(-94 -52)">
	<g>
		<path id="b" class="st0" d="M0,0"/>
	</g>
	<g>
		<path id="b_00000002356410152136734950000018198541257759616901_" class="st0" d="M0,0"/>
	</g>
	<path class="st0" d="M0,0"/>
</g>
<g id="bg-intro-mobile" transform="translate(-35.176)">
	<path id="Path_1" class="st1" d="M41.7,36.2L95,152.3c14.2,30.8,33.3,48,53.3,48h8.3c20,0,39.2,17.2,53.3,48l57.1,124.1
		c14.2,30.8,33.3,48,53.3,48h167.1c20.7,0,37.5-36.6,37.5-81.7c0-21.6-3.9-42.5-11-57.7l-39.8-86.6c-5.6-12.1-5.6-31.6,0-43.8
		c2.6-5.7,6.3-9,10-9c7.8,0,14.2-13.8,14.2-30.8c0-8.2-1.5-16.1-4.1-21.8L412.7-88.3c-14.1-30.8-33.2-48-53.3-48H275
		c-19.6,0-38.4-16.9-52.2-47.1c-13.8-30.2-32.6-47.1-52.2-47.1H73.6c-14.6,0-26.5,25.9-26.5,57.7c0,15.3,2.8,30,7.8,40.8l13.3,28.9
		c7.3,15.9,7.3,41.8,0,57.7c-3.5,7.7-8.3,12-13.3,12c-10.3,0-18.8,18.2-18.8,40.8C36.2,18.1,38.1,28.5,41.7,36.2z"/>
	
		<linearGradient id="Path_2_00000097501585638659579200000012403652376035786381_" gradientUnits="userSpaceOnUse" x1="71.352" y1="326.5005" x2="560.0392" y2="326.5005" gradientTransform="matrix(1 0 0 -1 -35.176 421.5276)">
		<stop  offset="0" style="stop-color:#E52165"/>
		<stop  offset="0.281" style="stop-color:#E41D57"/>
		<stop  offset="0.8117" style="stop-color:#DE1E32"/>
		<stop  offset="1" style="stop-color:#DD1F26"/>
	</linearGradient>
	<path id="Path_2" style="fill:url(#Path_2_00000097501585638659579200000012403652376035786381_);" d="M41.7,36.2L95,152.3
		c14.2,30.8,33.3,48,53.3,48h8.3c20,0,39.2,17.2,53.3,48l57.1,124.1c14.2,30.8,33.3,48,53.3,48h167.1c20.7,0,37.5-36.6,37.5-81.7
		c0-21.6-3.9-42.5-11-57.7l-39.8-86.6c-5.6-12.1-5.6-31.6,0-43.8c2.6-5.7,6.3-9,10-9c7.8,0,14.2-13.8,14.2-30.8
		c0-8.2-1.5-16.1-4.1-21.8L412.7-88.3c-14.1-30.8-33.2-48-53.3-48H275c-19.6,0-38.4-16.9-52.2-47.1c-13.8-30.2-32.6-47.1-52.2-47.1
		H73.6c-14.6,0-26.5,25.9-26.5,57.7c0,15.3,2.8,30,7.8,40.8l13.3,28.9c7.3,15.9,7.3,41.8,0,57.7c-3.5,7.7-8.3,12-13.3,12
		c-10.3,0-18.8,18.2-18.8,40.8C36.2,18.1,38.1,28.5,41.7,36.2z"/>
	
		<linearGradient id="Path_3_00000134233572558614956840000012400015705309822875_" gradientUnits="userSpaceOnUse" x1="93.1374" y1="12.1492" x2="94.0722" y2="12.4083" gradientTransform="matrix(648.4145 0 0 397 -60258.6133 -4773.0034)">
		<stop  offset="1.300792e-03" style="stop-color:#3C7DC0"/>
		<stop  offset="0.2457" style="stop-color:#3D79BD"/>
		<stop  offset="0.4929" style="stop-color:#4070B7"/>
		<stop  offset="0.7415" style="stop-color:#4A62AD"/>
		<stop  offset="0.9898" style="stop-color:#5A53A3"/>
		<stop  offset="1" style="stop-color:#5A52A3"/>
	</linearGradient>
	
		<path id="Path_3" style="fill-rule:evenodd;clip-rule:evenodd;fill:url(#Path_3_00000134233572558614956840000012400015705309822875_);" d="
		M203,37.8l53.3,116.1c14.2,30.8,33.3,48,53.3,48h8.3c20,0,39.2,17.2,53.3,48l57.1,124.1c14.2,30.8,33.3,48,53.3,48h167.1
		c20.7,0,37.5-36.6,37.5-81.7c0-21.6-3.9-42.5-11-57.7l-39.8-86.6c-5.6-12.1-5.6-31.6,0-43.8c2.6-5.7,6.3-9,10-9
		c7.8,0,14.2-13.8,14.2-30.8c0-8.2-1.5-16.1-4.1-21.8L574-86.7c-14.1-30.8-33.2-48-53.3-48h-84.4c-19.6,0-38.4-16.9-52.2-47.1
		c-13.8-30.2-32.6-47.1-52.2-47.1H235c-14.6,0-26.5,25.9-26.5,57.7c0,15.3,2.8,30,7.8,40.8l13.3,28.9c7.3,15.9,7.3,41.8,0,57.7
		c-3.5,7.7-8.3,12-13.3,12c-10.3,0-18.8,18.2-18.8,40.8C197.5,19.8,199.4,30.1,203,37.8L203,37.8z"/>
</g>
<rect x="-438.1" y="-49.9" class="st4" width="187.9" height="117.7"/>
<rect x="-222.1" y="-44.6" class="st5" width="231.8" height="130"/>
<rect x="513.5" y="-121.7" class="st6" width="289.8" height="242.3"/>
<rect x="608.4" y="287.5" class="st7" width="203.7" height="175.6"/>
</svg>
