<?xml version="1.0" encoding="utf-8"?>
<!-- Generator: Adobe Illustrator 26.0.3, SVG Export Plug-In . SVG Version: 6.00 Build 0)  -->
<svg version="1.1" id="Layer_1" xmlns="http://www.w3.org/2000/svg" xmlns:xlink="http://www.w3.org/1999/xlink" x="0px" y="0px"
	 viewBox="0 0 1198.3 956" style="enable-background:new 0 0 1198.3 956;" xml:space="preserve">
<style type="text/css">
	.st0{fill:url(#Path_2_00000057122432131613361630000007541924105917165725_);}
	.st1{fill-rule:evenodd;clip-rule:evenodd;fill:url(#Path_3_00000075142678128117749380000009656293478732481979_);}
	.st2{display:none;fill-rule:evenodd;clip-rule:evenodd;fill:#1781E3;}
	.st3{display:none;fill-rule:evenodd;clip-rule:evenodd;fill:#5944C6;}
	.st4{display:none;fill-rule:evenodd;clip-rule:evenodd;fill:#A63297;}
	.st5{display:none;fill-rule:evenodd;clip-rule:evenodd;fill:#0EABA9;}
	.st6{display:none;fill-rule:evenodd;clip-rule:evenodd;fill:#DD1122;}
	.st7{display:none;fill:#E61E64;}
</style>
<g id="bg-intro-desktop" transform="translate(-57.53)">
	<path id="Path_1" d="M69.4,572.8l134.3,134.3c18.8,18.8,44.2,29.3,70.7,29.3h70.7c26.5,0,52,10.5,70.7,29.3l161,161
		c18.8,18.8,44.2,29.3,70.7,29.3h388.9c45,0,81.4-36.5,81.4-81.4c0-21.6-8.6-42.3-23.8-57.6l-86.4-86.4c-12-12-12-31.5,0-43.6
		c5.8-5.8,13.6-9,21.8-9c17,0,30.8-13.8,30.8-30.8c0-8.2-3.2-16-9-21.8L855.8,430.1c-18.8-18.8-44.2-29.3-70.7-29.3H550.7
		c-26.5,0-52-10.5-70.7-29.3l-35.3-35.2C426,317.5,400.6,307,374,307H138.9c-31.8,0-57.5,25.7-57.5,57.5c0,15.3,6.1,29.9,16.9,40.7
		L127,434c15.9,15.9,15.9,41.6,0,57.5c-7.6,7.6-18,11.9-28.8,11.9c-22.5,0-40.7,18.2-40.7,40.7C57.5,554.9,61.8,565.2,69.4,572.8
		L69.4,572.8z"/>
	
		<linearGradient id="Path_2_00000013154691671447340760000002509235573195862147_" gradientUnits="userSpaceOnUse" x1="57.5296" y1="631.5" x2="1117.8472" y2="631.5">
		<stop  offset="0" style="stop-color:#E61E64"/>
		<stop  offset="0.3252" style="stop-color:#E41A52"/>
		<stop  offset="0.9739" style="stop-color:#DD1124"/>
		<stop  offset="0.9987" style="stop-color:#DD1122"/>
	</linearGradient>
	<path id="Path_2" style="fill:url(#Path_2_00000013154691671447340760000002509235573195862147_);" d="M69.4,572.8l134.3,134.3
		c18.8,18.8,44.2,29.3,70.7,29.3h70.7c26.5,0,52,10.5,70.7,29.3l161,161c18.8,18.8,44.2,29.3,70.7,29.3h388.9
		c45,0,81.4-36.5,81.4-81.4c0-21.6-8.6-42.3-23.8-57.6l-86.4-86.4c-12-12-12-31.5,0-43.6c5.8-5.8,13.6-9,21.8-9
		c17,0,30.8-13.8,30.8-30.8c0-8.2-3.2-16-9-21.8L855.8,430.1c-18.8-18.8-44.2-29.3-70.7-29.3H550.7c-26.5,0-52-10.5-70.7-29.3
		l-35.3-35.2C426,317.5,400.6,307,374,307H138.9c-31.8,0-57.5,25.7-57.5,57.5c0,15.3,6.1,29.9,16.9,40.7L127,434
		c15.9,15.9,15.9,41.6,0,57.5c-7.6,7.6-18,11.9-28.8,11.9c-22.5,0-40.7,18.2-40.7,40.7C57.5,554.9,61.8,565.2,69.4,572.8L69.4,572.8
		z"/>
	
		<linearGradient id="Path_3_00000140715276260490432010000006559425872835676582_" gradientUnits="userSpaceOnUse" x1="195.5296" y1="324.5" x2="1255.8477" y2="324.5">
		<stop  offset="0" style="stop-color:#1781E3"/>
		<stop  offset="0.2431" style="stop-color:#2277DE"/>
		<stop  offset="0.6636" style="stop-color:#3E5DD2"/>
		<stop  offset="1" style="stop-color:#5944C6"/>
	</linearGradient>
	
		<path id="Path_3" style="fill-rule:evenodd;clip-rule:evenodd;fill:url(#Path_3_00000140715276260490432010000006559425872835676582_);" d="
		M207.4,265.8l134.3,134.3c18.8,18.8,44.2,29.3,70.7,29.3h70.7c26.5,0,52,10.5,70.7,29.3l161,161c18.8,18.8,44.2,29.3,70.7,29.3
		h388.9c45,0,81.4-36.5,81.4-81.4c0-21.6-8.6-42.3-23.8-57.6l-86.4-86.4c-12-12-12-31.5,0-43.6c5.8-5.8,13.6-9,21.8-9
		c17,0,30.8-13.8,30.8-30.8c0-8.2-3.2-16-9-21.8L993.8,123.1c-18.8-18.8-44.2-29.3-70.7-29.3H688.7c-26.5,0-52-10.5-70.7-29.3
		l-35.3-35.2C564,10.5,538.6,0,512,0H276.9c-31.8,0-57.5,25.7-57.5,57.5c0,15.3,6.1,29.9,16.9,40.7L265,127
		c15.9,15.9,15.9,41.6,0,57.5c-7.6,7.6-18,11.9-28.8,11.9c-22.5,0-40.7,18.2-40.7,40.7C195.5,247.9,199.8,258.2,207.4,265.8
		L207.4,265.8z"/>
</g>
<rect x="1468.4" y="-356.4" class="st2" width="289.8" height="242.3"/>
<rect x="1563.3" y="52.7" class="st3" width="203.7" height="175.6"/>
<rect x="1243.7" y="-367" class="st4" width="212.5" height="177.4"/>
<rect x="1531.7" y="-66.7" class="st5" width="137" height="91.3"/>
<rect x="750.2" y="-240.5" class="st6" width="187.9" height="117.7"/>
<rect x="966.2" y="-235.3" class="st7" width="231.8" height="130"/>
</svg>
