<svg xmlns="http://www.w3.org/2000/svg" viewBox="0 0 237.77 186.68"><defs><style>.cls-1{fill:#fff;}</style></defs><g id="simple_W_B" data-name="simple W/B"><path class="cls-1" d="M144.2,72.72c0-.55-1.63-1.41-2.51-1.41-14.26-.07-28.51,0-42.76,0-4.34,0-8.67,0-13,0-1.6,0-3,.11-3,2,.08,4.18,0,8.37.24,12.54a3,3,0,0,0,2,2.11c4.48.6,9,1,13.53,1.26,2.37.12,3.62.72,3.62,2.88,0,9.44.18,18.88,0,28.31,0,1.19-1.45,2.89-2.76,3.43-10.61,4.39-22,4.91-33.41,3.76A37,37,0,0,1,52.34,123a38.48,38.48,0,0,1-17-19C30.57,92.85,30.25,81.29,30,69.82a56.89,56.89,0,0,1,3.89-22.18c4.4-11.23,11.51-20.19,25.07-24.4,2.31-.72,4.86-.89,7.19-1.58,11.14-3.27,22.17-2.43,33.13.58,2.59.71,4.72,2.11,5,4.68.31,3,.53,6,.64,9s0,6.17,0,8.86c7.68,0,14.6,0,21.51,0,1.94,0,2.79-.5,2.76-2.4-.15-8.36-.15-16.73-.08-25.1.07-8.54,0-8.29-9.16-11.53C108.13,1.6,95.75.29,83.25,0A105,105,0,0,0,44.43,6.48,69.23,69.23,0,0,0,15.91,25.8c-5.29,5.95-9.18,12.51-11,19.85C3.26,52.25,1.37,58.84.41,65.53-.32,70.6.12,75.81.25,81c.36,14.15,3.26,27.72,12,40.12a59.26,59.26,0,0,0,36.26,24.45,121.82,121.82,0,0,0,46.43,1.33,116.93,116.93,0,0,0,32.92-10.1c2.41-1.16,3.83-2.52,3.79-5.23-.17-11.58,0-23.16,0-34.74,0-6.39,2.64-8.87,10.07-9.29,2.41-.14,3.21-.95,3.11-2.87C144.6,80.65,144.57,76.67,144.2,72.72Z"/><path class="cls-1" d="M136.69,157.18c0,.2.09.25.29.16a.51.51,0,0,1,.48,0,6.15,6.15,0,0,0,.82.29.86.86,0,0,0,.55,0,.72.72,0,0,1,.45-.07l.31,0a.77.77,0,0,0,.16-.07c0-.05,0-.11-.09-.13s-.32-.18-.48-.27-.32-.19-.53-.32l.35-.14-.68-.57c-.37-.32-.74-.63-1.09-1-.08-.07-.15-.23-.1-.31s.23-.1.36-.1.5,0,.75,0c.58,0,.61-.06.38-.48,0,0,0,0,0-.06.42-.09.83.27,1.27.09l-2.13-1.24-.07,0c0,.14.05.28.06.42s-.11.27-.32.19a6.1,6.1,0,0,1-.64-.31c.08.35-.15.7.12,1,0,0,0,.1,0,.15a1.48,1.48,0,0,0-.12.29c0,.32,0,.64,0,1s0,.44.27.57c0,0,0,.07.09.15l-.38-.08C136.72,156.73,136.7,157,136.69,157.18Z"/><path class="cls-1" d="M191.33,166.58q.49.64,1,1.26c.4-1.19.81-2.38,1.2-3.58a1.64,1.64,0,0,1-.31-.22c-.38-.37-.7-.8-1.07-1.18a1.57,1.57,0,0,0-.44-.25c-.08.16-.23.32-.24.48C191.43,164.26,191.38,165.42,191.33,166.58Z"/><path class="cls-1" d="M196.46,138.89c-.37-.2-.77-.34-1.16-.51l-.13.21a16.55,16.55,0,0,0,5.61,4.5c.43-1.34.86-2.68,1.3-4l-1.27-.44a5.14,5.14,0,0,0-.8-.13l-.07.16,1.6,1c-1,.51-1.69-.09-2.42-.31,0,.05-.08.08-.07.11,0,.21.06.41.1.62a2.13,2.13,0,0,1-.69-.1C197.78,139.64,197.14,139.24,196.46,138.89Z"/><path class="cls-1" d="M194.85,117.37l-1.31-3.22a2.7,2.7,0,0,0-.17.54c0,.57,0,1.15,0,1.72S194.27,117.53,194.85,117.37Z"/><path class="cls-1" d="M201.41,131.43c-.33-.16-.64-.37-1-.57-.26.79-.3.82-1,.56-.55-.19-1.07-.42-1.61-.64l-.12.14,1.55,1.34c-1.33.37-2.07-.59-3.21-.93.3.36.49.6.69.83l-.07.18-1.84-.36c.63.54,1.1,1,1.63,1.39a16.11,16.11,0,0,0,5.46,2.44c.4.11.8.19,1.19.29.28-.83.54-1.66.82-2.48l1.26-3.73a2.35,2.35,0,0,1-1.27.34c-.58.05-1.16.06-1.84.09.29.37.54.65.75,1,.08.11.17.33.12.39s-.33.25-.45.21A5.6,5.6,0,0,1,201.41,131.43Z"/><path class="cls-1" d="M191.75,155l-.15,5.2c0,.4.16.89.58.72a1.44,1.44,0,0,1,1.4.21,3.18,3.18,0,0,0,.66.17,2.67,2.67,0,0,0,0-.7,4.34,4.34,0,0,0-.38-.66,13.57,13.57,0,0,1-.8-1.68c-.23-.64.11-1,.82-.84.41.08.81.24,1.22.34a.74.74,0,0,0,.57,0c0-.12.08-.24.11-.36l0-.1a.57.57,0,0,0,0-.13c0-.24-.1-.47-.18-.8l.49.11c.28-.71.63-1.4,1-2.09a2.69,2.69,0,0,0-1.07-.42.8.8,0,0,1-.05.21c-.07.21-.12.55-.24.58a1,1,0,0,1-.7-.19c-.36-.3-.64-.69-1-1a8.25,8.25,0,0,0-.67-.52c-.1.52-.17.94-.25,1.36l-1.29-.31C191.79,154.27,191.76,154.61,191.75,155Z"/><path class="cls-1" d="M198.47,145.12l1.45.68c.08-.28.17-.56.26-.83a1.19,1.19,0,0,1-.22-.08c-.68-.33-1.33-.72-2-1.1-.24-.13-.45-.32-.7-.44a1.11,1.11,0,0,0-.45,0c0,.14-.05.35,0,.42A7.41,7.41,0,0,0,198.47,145.12Z"/><path class="cls-1" d="M192.26,142.47a.57.57,0,0,0,.47.69,6.09,6.09,0,0,0,.81.22c1.14.15,1.49-.15,1.47-1.22s0-1,1.07-.95c.3,0,.43-.06.35-.35-.13-.55-.9-1.29-1.43-1.16a1.48,1.48,0,0,1-1.74-.78s-.11,0-.26-.08c-.22.72-.49,1.42-.65,2.13A14.91,14.91,0,0,0,192.26,142.47Z"/><path class="cls-1" d="M196.85,149.3l-.15.22c.27.26.48.61.8.75l1.05.46c.08-.31.17-.62.25-.94l-.89-.22Z"/><path class="cls-1" d="M193.31,120.8c.12.44.1,1.65,1.36,1.24a.14.14,0,0,1,.11,0c.47.54,1.23.24,1.79.54.13.07.39-.09.59-.14a3.2,3.2,0,0,0-.27-.52c-.68-.8-1.39-1.58-2.07-2.37a2.11,2.11,0,0,1-.25-.42l-.61.32c-.17-.43-.33-.83-.48-1.23l-.1,0A7.66,7.66,0,0,0,193.31,120.8Z"/><path class="cls-1" d="M137.74,149.32c-.2-.43-.4-.86-.63-1.33a2.11,2.11,0,0,0-.08.22c0,.24,0,.47,0,.71S137.47,149.38,137.74,149.32Z"/><path class="cls-1" d="M136.61,159.61c0,.15,0,.24.22.28a2.79,2.79,0,0,0,.39.1c.53.06.7-.06.68-.5s0-.42.5-.39c.14,0,.21,0,.17-.14a.76.76,0,0,0-.68-.48.73.73,0,0,1-.82-.33l-.12,0a7.47,7.47,0,0,0-.3.87A4.21,4.21,0,0,0,136.61,159.61Z"/><path class="cls-1" d="M192.48,136.54c0,.49.18.63.61.38a1,1,0,0,1,1,0,12.16,12.16,0,0,0,1.72.7,1.65,1.65,0,0,0,1.16,0,1.29,1.29,0,0,1,1-.18,3.65,3.65,0,0,0,.66,0,1,1,0,0,0,.35-.17c-.06-.11-.09-.26-.19-.32-.33-.23-.69-.41-1-.63s-.68-.48-1.11-.78l.74-.36c-.51-.49-1-.92-1.44-1.37-.77-.77-1.55-1.52-2.29-2.31a.89.89,0,0,1-.22-.77c.08-.16.51-.24.78-.25.53,0,1.06.05,1.59,0,1.23,0,1.3-.15.81-1.17,0,0,0-.07,0-.14.91-.23,1.77.64,2.7.19l-4.5-3-.15.13c0,.34.1.67.12,1s-.23.68-.69.48a12.09,12.09,0,0,1-1.33-.76c.16.86-.35,1.71.22,2.52.06.07,0,.24,0,.35a2.91,2.91,0,0,0-.26.71c-.05.79,0,1.58-.08,2.37,0,.56-.07,1.08.56,1.39.08,0,.1.18.19.35l-.8-.18C192.54,135.45,192.5,136,192.48,136.54Z"/><path class="cls-1" d="M136.55,162.54c.33.16.65.34,1,.47a1.63,1.63,0,0,0,.49,0,1.58,1.58,0,0,0-.05-.38c-.08-.18-.22-.33-.31-.51s0-.25.23-.2.32.1.49.13c.32.07.65.14,1,.18s.4,0,.37-.23.1-.19.25-.17l.68.09c0-.07,0-.13-.08-.16a6.06,6.06,0,0,0-1.82-1.1c-.06,0-.16,0-.26,0l.09.39a3.2,3.2,0,0,1-.48-.17c-.15-.1-.27-.24-.42-.35a1.69,1.69,0,0,0-.27-.11,1,1,0,0,0,0,.24c.07.2.18.4.25.6s0,.17,0,.19a.33.33,0,0,1-.26,0,.87.87,0,0,1-.28-.19,4,4,0,0,1-.32-.36,1.5,1.5,0,0,0-.11.17,3.14,3.14,0,0,0-.19,1.32A.22.22,0,0,0,136.55,162.54Z"/><path class="cls-1" d="M137,150.72c.06.18.05.68.64.51l.05,0c.23.22.58.1.85.22.06,0,.18,0,.28-.05a1.16,1.16,0,0,0-.13-.22l-1-1a1.77,1.77,0,0,1-.12-.17l-.28.13c-.08-.18-.16-.34-.23-.51h0A2.81,2.81,0,0,0,137,150.72Z"/><path class="cls-1" d="M190.07,133.86l.15.14.8-.34.35.57c.29-.3.7-.52.72-.77.11-1.05.12-2.12.13-3.17,0-.17-.21-.34-.33-.51l-.19.09a7,7,0,0,1-.13,1,1,1,0,0,1-.39.48s-.26-.16-.41-.24a.84.84,0,0,0-.41-.16,4,4,0,0,0-2.31,1.83,4.71,4.71,0,0,0,.72-.09c.46-.14.91-.33,1.38-.46a2,2,0,0,1,.6,0,2.36,2.36,0,0,1-.11.6A11.6,11.6,0,0,1,190.07,133.86Z"/><path class="cls-1" d="M192.08,149.61a20.23,20.23,0,0,0,2.1,1.14c.27.12.68,0,1,0a3.93,3.93,0,0,0-.1-.92c-.17-.43-.46-.81-.64-1.24s0-.6.48-.48.69.22,1,.3c.69.16,1.38.33,2.07.43.41.06.87,0,.81-.58,0-.34.16-.44.44-.42.09-.36.19-.71.31-1.07v0a14.21,14.21,0,0,0-2.8-1.72c-.14-.07-.35,0-.55,0,.06.3.1.52.18,1a4.85,4.85,0,0,1-1-.41c-.33-.24-.58-.58-.9-.85a2.38,2.38,0,0,0-.56-.25,1.85,1.85,0,0,0,0,.57c.15.5.37,1,.52,1.47.05.15,0,.41-.08.47a.75.75,0,0,1-.55,0,2,2,0,0,1-.61-.47,10.54,10.54,0,0,1-.67-.88l-.24.41c-.51,1-.3,2.16-.41,3.24A.43.43,0,0,0,192.08,149.61Z"/><path class="cls-1" d="M143.64,165.45c-.12.28-.24.56-.37.83l.1.15-.19,0c-.14.32-.3.63-.46.93l.85.46a1.53,1.53,0,0,1-1.25.19,4,4,0,0,1-1.13,1,4.65,4.65,0,0,0-2,2.28,5.74,5.74,0,0,1-1.85,2.27l.67,1.54c.22.53.43,1.07.64,1.61a46.91,46.91,0,0,1,4.58-5.12,7.46,7.46,0,0,1,1.29-1c1.33-.74,1.76-2.22,1.78-3.84a36.33,36.33,0,0,0-.42-4.21,3.78,3.78,0,0,0-1.67,1.73h0c.06,0,.09.12.13.19l-.25.08h-.05c-.05.09-.09.18-.13.27l0,.05a6.54,6.54,0,0,0,.6.28l.33.15C144.65,165.59,144.28,165.63,143.64,165.45Z"/><path class="cls-1" d="M147.88,171.21c-1,1.5-2,3-2.88,4.59-.44.76-.72,1.69-1.1,2.51-.61,1.3-1.24,2.59-1.89,3.86a.78.78,0,0,1-.65.36c.26.89.53,1.78.82,2.67,0,.05,0,.09,0,.13a5.27,5.27,0,0,0,1.5-1.66,2.82,2.82,0,0,1,.78-.83,9.52,9.52,0,0,0,2.42-3.29,4.93,4.93,0,0,1,1.38-1.31,14,14,0,0,0,1.9-1.63c1.2-1.49,2.22-3.22,3.47-4.61a33.87,33.87,0,0,1,3.58-3c.7-.6,1.39-1.22,2.07-1.85.22-.2.38-.5.6-.72,1.11-1.15,1.84-1,2.68.48a19.27,19.27,0,0,0,1.2,2.09,4.55,4.55,0,0,0,1.33,1.33c1.68,1,2.69,2.71,3.59,4.63a7.49,7.49,0,0,0,1.24,2,29.58,29.58,0,0,0,2.79,2.49c.86.7,1.69.36,2.2-.81.09-.21.14-.43.23-.64a.65.65,0,0,0-.3-1,2.89,2.89,0,0,1-1-1.05,12.84,12.84,0,0,1-1.57-6.06,8.24,8.24,0,0,0-1.93-5.56,2.52,2.52,0,0,1-.51-1.91,4.55,4.55,0,0,0-1.12-3.4,9.23,9.23,0,0,1-1-2.4c-.22-.56-.38-1.15-.61-1.71s-.61-1.37-.88-2.07-.5-.74-.95-.28c-1.33,1.35-2.63,2.76-4,3.95a9.58,9.58,0,0,0-2.38,2.45c-.15.24-.28.5-.4.72l3.28,1.61c-.27.21-.33.29-.37.28-1.88-.47-3.64.52-5.45.8a2.66,2.66,0,0,0-1.87,1.51c-1,1.86-2,3.72-3,5.57-.21.39-.46.75-.8,1.32,0-.64,0-1,0-1.44A4,4,0,0,0,147.88,171.21Zm17.8-14H166c.07.47.16.94.2,1.42a13.12,13.12,0,0,0,1.36,5.16,44.49,44.49,0,0,1,1.93,4.8,3.8,3.8,0,0,1,.09,1.49,14.65,14.65,0,0,0-2.36-4.56c-.49,1.33.12,2.56,0,4a2.66,2.66,0,0,1-.74-1.89c.18-2.75-.69-5.3-.8-8C165.64,158.84,165.67,158,165.68,157.24Z"/><path class="cls-1" d="M131.9,160.77l.07.16a.68.68,0,0,0,.12-.12l0-.08Z"/><path class="cls-1" d="M136.3,154.43a2.83,2.83,0,0,1-.06.42.43.43,0,0,1-.18.2s-.12-.07-.19-.1a.48.48,0,0,0-.2-.07,1.81,1.81,0,0,0-1.08.74,3.07,3.07,0,0,0,.34,0l.65-.19a1.31,1.31,0,0,1,.28,0,.74.74,0,0,1-.05.25,4.78,4.78,0,0,1-.26.42l.07.05L136,156l.16.23c.14-.12.33-.21.34-.31a11.3,11.3,0,0,0,.05-1.3c0-.07-.1-.14-.16-.21Z"/><path class="cls-1" d="M131,158.48l.09.24c.17.47.36.94.55,1.41.65-.2,1.31-.39,2-.6a3.24,3.24,0,0,0,.66-.36c.06,0,.06-.14.09-.21a1.17,1.17,0,0,0-.25-.07c-.25,0-.5,0-.74,0a.84.84,0,0,1-.25-.09c.06-.06.09-.14.16-.18.27-.14.56-.27.83-.42s.43-.17.27-.36-.35,0-.52.05c-.35.15-.69.33-1.06.46-.17.07-.34,0-.25-.2A5.76,5.76,0,0,1,131,158.48Z"/><path class="cls-1" d="M134.09,157a.6.6,0,0,1-.35,0,3.1,3.1,0,0,0-2,.34s0,0-.06.1a3.2,3.2,0,0,0,.39.1h.45l-.1.27c.18,0,.33,0,.47-.05.37-.08.73-.18,1.1-.27a.4.4,0,0,1,.43.11.57.57,0,0,0,.54.13,2.16,2.16,0,0,1,.35,0,1,1,0,0,1-.17.27c-.16.13-.35.24-.53.36l-.32.2c.3.18.63-.18.83.12h.07l.5-.1a2.52,2.52,0,0,1-.12.39.64.64,0,0,1-.69.36.63.63,0,0,0-.47.17,1.74,1.74,0,0,1-.59.35,9.48,9.48,0,0,1-1,.27l-.41.16,0,.11a4.24,4.24,0,0,0,.62,0,4.56,4.56,0,0,0,.62-.13l.05.08-.56.41,0,.06.2,0a1.38,1.38,0,0,1,.78,0c.15.07.39,0,.59,0a1.53,1.53,0,0,1,.36.07c0,.06,0,.15-.09.19s-.19.24-.41.11a.44.44,0,0,0-.27,0,3.41,3.41,0,0,1-1.59.32c-.35,0-.36,0-.17-.33l-.31.08-.22.08c.16.38.33.77.5,1.15a11.72,11.72,0,0,0,1.26-.55c.21-.1.39-.22.58-.33l.06,0a5.7,5.7,0,0,1-.52.46,4.73,4.73,0,0,1-1.26.66l.54,1.22.17,0a.88.88,0,0,1,.26.06c0,.06,0,.14-.1.19l-.18.13.42.95h0s0,0,0,.05c.1.23.2.47.29.71l.08,0,0,.15.24.59s.06,0,.08,0a4,4,0,0,0,.45-.39l.12-.13c.31-.38.46-.39.8-.05A.34.34,0,0,0,136,166c0-.65.07-1.31.11-2,0-.29-.06-.32-.38-.22a2.68,2.68,0,0,1-.3,0c0-.09,0-.2,0-.27a1.74,1.74,0,0,1,.67-.89c.05,0,.07-.11.07-.16,0-.35.05-.7.06-1s-.1-.33-.42-.26a2.35,2.35,0,0,1-.26,0c0-.07,0-.16.06-.22a3.45,3.45,0,0,1,.28-.26c.13-.12.24-.25.36-.37l-.05-.08-.61.09a.5.5,0,0,1,.36-.48c.41-.15.44-.42.44-.73s0-.67.06-1,0-.41-.46-.28l-.19,0a.93.93,0,0,1,.49-.6.54.54,0,0,0,.17-.65.3.3,0,0,0-.45-.09,1,1,0,0,1-.75.16l.18-.26,0-.06-.35.13C134.71,156.72,134.41,156.87,134.09,157Z"/><path class="cls-1" d="M138.41,164.3s0,.06,0,.09-.06.22-.11.23a.51.51,0,0,1-.34-.08,6,6,0,0,1-.46-.42c-.1-.08-.23-.15-.32-.21,0,.21-.08.38-.11.56l-.61-.14c0,.12,0,.26,0,.4l-.06,2.13c0,.17.08.37.28.3a.75.75,0,0,1,.66.09,1.41,1.41,0,0,0,.31.07,1.37,1.37,0,0,0,0-.29,2.53,2.53,0,0,0-.18-.27,6.75,6.75,0,0,1-.39-.69c-.11-.26.06-.4.39-.34s.38.1.58.14.38,0,.33-.26,0-.19-.09-.33a1.77,1.77,0,0,1,.33.08c.26.08.51.19.77.27a.63.63,0,0,0,.24,0l.45,0h.27A3.61,3.61,0,0,0,138.41,164.3Z"/><path class="cls-1" d="M237.7,77h0c0-.14,0-.29,0-.44-.12-1,.3-2.05-.26-3h0a7.61,7.61,0,0,0,0-1.51c-.44-2-.79-3.36-3.73-3.49h0c-1.24-.51-2.62-.17-3.93-.31a32.3,32.3,0,0,0-6.37-.08,11.93,11.93,0,0,1-3.31.15,19.46,19.46,0,0,0-3.14-.18c-3.09-.07-6.18.06-9.28,0-4.8,0-9.61.2-14.42.12L182.15,68c-.9,0-1.78.09-2.68.08a81.74,81.74,0,0,0-11.18.18c-1.11.14-2.08.65-2.18,1.51a20,20,0,0,0-.36,3c.08,2.34,0,4.67,0,7a18.68,18.68,0,0,0,.31,5.17c.19.7.44,1.58,1.54,1.67a57.62,57.62,0,0,0,6.57.22,33,33,0,0,1,6.22.32c2,.3,2.8,1.36,2.24,2.8-.48,1.21-.76,2.45-1.23,3.65-1.71,4.37-3,8.83-4.58,13.23-1.75,4.86-3.46,9.74-5.22,14.6-1.62,4.45-3.24,8.89-5,13.32-1.21,3.13-2.5,6.26-3.47,9.44A5.82,5.82,0,0,1,159,148c-2.42.73-5.8-.75-6.74-2.67-1.26-2.58-2.37-5.21-3.69-7.77-1.2-2.34-2.21-4.73-3.28-7.1-1.43-3.14-2.85-6.29-4.36-9.41-1.77-3.67-3.39-7.38-5.09-11.07-1.39-3-2.87-6-4.2-9-1.73-3.93-3.91-7.77-5-11.87.83-1.44,2.39-2.09,4.38-2.15,3.73-.1,7.45-.14,11.18-.22,1.46,0,2.46-.59,2.53-1.51a33.28,33.28,0,0,0,.25-5.27c-.19-2.65-.18-5.3-.24-8h0a6.66,6.66,0,0,0-.27-2.58,2,2,0,0,0-2-1.33,49.22,49.22,0,0,0-5.14-.11c-3.16.14-6.31.07-9.46.08-3.68,0-7.39-.14-11,0-4.52.15-9,.3-13.54.15-3.24-.11-6.45.35-9.69-.08-2.45-.33-5,.18-7.44.2-1.59,0-3.35,1.28-3.28,2.33a49.61,49.61,0,0,1,0,7.9c-.2,2.3,1.1,4.47,1.62,6.72a2.26,2.26,0,0,0,2.23,1.64,104.07,104.07,0,0,0,11.31-.16c2.08-.19,4,.52,4.27,2s.76,2.93,1.14,4.39a58.71,58.71,0,0,0,2.57,6.79c1.19,3,2.6,6,3.87,9s2.46,6.32,3.92,9.42c1.61,3.41,2.84,6.89,4.41,10.3,1,2.24,1.89,4.51,2.85,6.76,1.52,3.59,3.07,7.16,4.61,10.74,1.11,2.59,2.16,5.19,3.35,7.76.5,1.08,1,2.18,1.42,3.29l1.35-.21c.85-.15,1.7-.35,2.54-.56a1.31,1.31,0,0,0,1-.68l-1.32.39-.05-.08.16-.22-.84,0,0-.12L135,155l0-.07-.47,0,1.12-.88-.07-.08-.79.34c-.34.15-.68.31-1,.44-.1,0-.24,0-.36,0v-.06c-.28.1-.56.23-.85.31s-.38.08-.32-.17l-.68.09-.05-.1.7-.42c-.39,0-.76,0-1.14,0a1.76,1.76,0,0,1-.43-.13,1.31,1.31,0,0,1,.34-.24c.82-.24,1.65-.46,2.48-.67a6.66,6.66,0,0,0,2.35-1.08,2.43,2.43,0,0,0,.29-.26.35.35,0,0,0,.06-.09l-.92.09,0-.22-.89-.09,0-.09.31-.13c.41-.17.82-.33,1.23-.51a1.83,1.83,0,0,0,.36-.26l0-.08-.55.15c-.18,0-.32.05-.27-.2l-.67.19c-.2,0-.41.1-.57-.09s-.17,0-.27-.05l-.47,0,0-.08.36-.18a6.64,6.64,0,0,0,2.15-1.2c.23-.22.43-.46.68-.73a1,1,0,0,1,0,.23,3.52,3.52,0,0,1-1.06,1.19,3.52,3.52,0,0,0-.35.31c-.05,0-.05.14-.07.21a1.85,1.85,0,0,0,.24,0l.47-.18v.17l.38-.1,0,0-.29.26,0,.06.58-.15.07.07c-.17.45-.75.61-1.08.92l.2.31.46-.07c.06,0,.17,0,.2,0s0,.11,0,.17a2.51,2.51,0,0,1-1.35,1.11c-.78.33-1.61.6-2.42.9l-.15.05a1.81,1.81,0,0,0,.53.23,1.71,1.71,0,0,0,.57-.12l.33-.11.08.1-.33.1.07.08.22,0a2,2,0,0,1,.26,0,.58.58,0,0,0,.26,0l1.1-.4c.13-.05.26-.08.44-.13a2,2,0,0,0,0,.32.23.23,0,0,0,.1.16.26.26,0,0,0,.19-.07c.1-.18.22-.13.38,0,0-.28,0-.53.05-.83a2.51,2.51,0,0,1-.43.13,1.12,1.12,0,0,1-.31,0,.75.75,0,0,1,.15-.2c.15-.11.32-.2.48-.3l-.05-.07H136l0-.06a4.78,4.78,0,0,0,.49-.36.69.69,0,0,0,.21-.34,4.8,4.8,0,0,0,.05-.67l-.43,0-.06-.07.37-.41c.06-.06.14-.12.15-.19,0-.3,0-.6.06-.92l-.58.19-.07-.07a3.19,3.19,0,0,1,.39-.5.82.82,0,0,0,.33-.7,3.93,3.93,0,0,1,0-.46c-.2,0-.34,0-.31-.19l-.58.29-.1-.09.62-.65-.07-.07-.87.43-.07-.08c.1-.09.18-.2.29-.29a2.87,2.87,0,0,0,1-1.16c.07-.18.17-.37-.05-.55,0,0-.05-.11,0-.15a3.05,3.05,0,0,0,.34-1.47.31.31,0,0,1,.12-.17.86.86,0,0,1,.07.21c0,.6.05,1.19.1,1.78a2,2,0,0,0,.21.56l.17.35c-.31,0-.28.15-.18.29.18.29.38.57.55.86a.57.57,0,0,1,0,.26,1.47,1.47,0,0,1-.28-.08,2.69,2.69,0,0,1-.32-.19l-.09,0a.8.8,0,0,0,.11.34c.21.26.45.51.68.76s.46.45.68.69a.56.56,0,0,1,.07.23,1,1,0,0,1-.3,0c-.29-.1-.57-.23-.85-.34l-.26-.05a3.57,3.57,0,0,0,1.34,1.36c.58.29,1.21.52,1.87.81a2.32,2.32,0,0,1-1.28,0l.36.4a.68.68,0,0,1-.73-.06c-.17-.1-.3-.23-.46-.33a1.07,1.07,0,0,0-.27-.06,1.23,1.23,0,0,0,0,.2c0,.18,0,.23-.25.18a2,2,0,0,0-.5-.08,4.66,4.66,0,0,0,2.68,1.22v.1l-.84.11a1.2,1.2,0,0,0,.75.33c.78.13,1.56.23,2.35.35l.21,0a.88.88,0,0,1-.75.29c-.27,0-.54,0-.86,0l.36.39c0,.05.08.14.05.16a.29.29,0,0,1-.21.09,2.88,2.88,0,0,1-.49-.18c-.16-.07-.3-.16-.46-.24-.12.32-.14.33-.49.22l-.76-.26-.06.06.74.55c-.63.15-1-.25-1.52-.39l.33.34,0,.07-.87-.15c.3.22.52.41.77.57a8.19,8.19,0,0,0,2.58,1c.81.19,1.62.34,2.43.51a1.14,1.14,0,0,1,.29.15c-.11.05-.21.14-.31.14-.33,0-.65,0-1,0l-.92,0c.24.37.71.44,1,.72a1.28,1.28,0,0,1-1,0c-.33-.08-.65-.2-1-.29a2.5,2.5,0,0,0-.38-.06l0,.07.75.41c-.47.21-.79,0-1.14-.13,0,0,0,0,0,0s0,.17,0,.26a.86.86,0,0,1-.32-.05c-.32-.14-.62-.3-.94-.45s-.37-.14-.55-.21L138,158a9.73,9.73,0,0,0,4,2.43c-.51.29-.91,0-1.34,0,0,.27-.15.31-.38.21s-.62-.3-.93-.45c-.11-.06-.22-.14-.33-.19a1.41,1.41,0,0,0-.21,0c0,.06,0,.15,0,.18a3.23,3.23,0,0,0,.77.56c1,.44,2,.84,3.09,1.25.36.14.72.25,1.08.38a1.62,1.62,0,0,1,.24.14c-.67.35-1.3-.08-2,0,.09.12.16.2.22.29s.09.27-.14.3a1.06,1.06,0,0,1-.47-.07c-.31-.11-.6-.26-.9-.38a3.46,3.46,0,0,0-.4-.14c.14.26,0,.3-.21.27s-.51-.11-.77-.16l-.5-.12-.07.1a1.61,1.61,0,0,0,.38.31,12.39,12.39,0,0,0,1.59.54c.66.16,1.36.2,2,.36l.45.15.17-.22c.72-.86,1.48-1.66,2.2-2.51.58-.69.92-.77,1.45,0a20.87,20.87,0,0,0,3.69,4c.68.58.75.55,1.25-.28a27.48,27.48,0,0,1,1.85-2.71c.23-.31.64-.41,1-.62a5.94,5.94,0,0,0,1.54-1.08c.91-1.15,1.69-2.46,2.56-3.67a4.88,4.88,0,0,1,1.15-1.2,15.45,15.45,0,0,0,5.75-6.2c.39-.81.79-.85,1.33-.17a11.73,11.73,0,0,1,1.17,1.6,31.76,31.76,0,0,0,4.7,6,21.22,21.22,0,0,1,3.61,5.69,23.79,23.79,0,0,0,4.83,6.37c.69.71,1.15.65,1.92-.14,1.5-1.53,3-3.13,4.44-4.7.16-.17.3-.36.47-.52.64-.6,1.23-.34,1.63.54.16.34.33.68.51,1,0-.44.05-.88.09-1.33a5.29,5.29,0,0,0-.26-2.26c-.3-.82-.46-1.7-.83-2.56-.09.44-.19.88-.27,1.32a.87.87,0,0,1-.85.83,1,1,0,0,0-.92.72,2.74,2.74,0,0,1-.49.86.81.81,0,0,1-.5.26c-.06,0-.16-.25-.25-.38l-.16-.26c-.2.23-.35.42-.52.6-.42.41-.78,1-1.56.53-.11-.07-.41.19-.63.25s-.67.12-1,.17a2.94,2.94,0,0,1,.31-.92,18.14,18.14,0,0,1,1.33-1.44.79.79,0,0,0,.24-.49,14.83,14.83,0,0,1-2.41,1,14.8,14.8,0,0,1-2.5.17l-.09-.24a8.37,8.37,0,0,1,.89-.68c1.16-.69,2.34-1.33,3.49-2a6.44,6.44,0,0,0,1.1-1c.09-.09.06-.28.08-.43-.15,0-.32-.08-.44,0-.85.35-1.7.74-2.55,1.11-.57.25-1.13.52-1.72.72a2.24,2.24,0,0,1-.81,0,4.06,4.06,0,0,1,.29-.64,2.3,2.3,0,0,0,.39-.69c-1,.33-1.95.72-2.95,1a6.64,6.64,0,0,1-1.73.12c-.15,0-.3-.21-.44-.32.12-.12.22-.28.37-.34.7-.3,1.42-.57,2.13-.86,1.72-.7,3.45-1.38,5.16-2.11a6.11,6.11,0,0,0,1.08-.79,3.28,3.28,0,0,0-2.07.1c-.66.17-1.33.34-2,.48a4.59,4.59,0,0,1-.79,0c.31-.45.53-.75.85-1.2a5.48,5.48,0,0,0-1,0c-1.54.35-3.08.74-4.62,1.09a3.23,3.23,0,0,1-1,0c-.17,0-.33-.18-.5-.27.12-.15.2-.36.35-.43.93-.44,1.88-.83,2.81-1.26.54-.25,1.06-.53,1.71-.85l-1.6-.73,0-.24a3,3,0,0,1,.62-.2,22.85,22.85,0,0,0,10.28-3.21c.43-.25.82-.56,1.23-.83l.14.11c-.38.38-.72.78-1.13,1.13a12.89,12.89,0,0,1-4,2.15c-.85.33-1.69.68-2.52,1a3.7,3.7,0,0,0-.59.38.86.86,0,0,1,0,.16l2,.29c-.15.27-.26.43-.33.6a5.4,5.4,0,0,0-.18.57,2,2,0,0,0,.68.1c.73-.14,1.45-.35,2.18-.51a15.17,15.17,0,0,1,1.5-.26,1.44,1.44,0,0,1,.54.16c-.06.15-.08.35-.2.45-.58.52-1.18,1-1.77,1.51l-1.19,1c.66.35,1.15,0,1.71-.06.13.55.52.44,1,.3a5.7,5.7,0,0,1,.85-.15c-.16,1-1.23,1.58-1.18,2.78l1.92-1c-.09.5-.19.9-.22,1.3,0,.19.07.48.2.54a.74.74,0,0,0,.61-.1,12.42,12.42,0,0,0,1-1,2.6,2.6,0,0,0,.25-.33c.67-.92,1-.95,1.72-.14a.81.81,0,0,0,.09-.26l.27-4.79c0-.71-.12-.8-.8-.53a3.09,3.09,0,0,1-.62.1,1.76,1.76,0,0,1,0-.65,4.25,4.25,0,0,1,1.44-2.16.6.6,0,0,0,.15-.41q.11-1.27.15-2.55c0-.66-.21-.8-.89-.64a2.45,2.45,0,0,1-.54,0A1.34,1.34,0,0,1,190,146c.17-.23.42-.41.61-.63s.52-.62.78-.92l-.11-.2-1.3.23a1.24,1.24,0,0,1,.76-1.17c.89-.38.95-1,1-1.79s.09-1.62.13-2.43-.09-1-1-.68c-.09,0-.19,0-.41.08a2.22,2.22,0,0,1,1.05-1.47,1.42,1.42,0,0,0,.37-1.58.6.6,0,0,0-1-.22,1.89,1.89,0,0,1-1.6.41c.15-.25.27-.45.38-.65l-.07-.13c-.25.1-.51.19-.76.31-.66.34-1.3.72-2,1a1,1,0,0,1-.74,0A6,6,0,0,0,182,137a1,1,0,0,0-.13.26,5.77,5.77,0,0,0,.83.23c.29,0,.6,0,.94,0l-.2.65a8.17,8.17,0,0,0,1-.13c.79-.2,1.56-.45,2.34-.67a.73.73,0,0,1,.9.27,1.09,1.09,0,0,0,1.16.31,2.66,2.66,0,0,1,.74,0,2.41,2.41,0,0,1-.37.67,11.12,11.12,0,0,1-1.14.88l-.67.51c.62.43,1.34-.46,1.75.26l.16,0,1.05-.24a8.64,8.64,0,0,1-.25,1,1.35,1.35,0,0,1-1.48.88,1.16,1.16,0,0,0-1,.42,4.58,4.58,0,0,1-1.26.87c-.65.28-1.35.44-2,.67-.3.1-.58.26-.87.39l.06.27c.44,0,.89,0,1.32-.06s.88-.21,1.32-.32l.1.18-1.2,1,.07.13.43,0a2.43,2.43,0,0,1,1.64,0c.32.16.83,0,1.25,0a3.61,3.61,0,0,1,.78.16c-.07.16-.09.38-.21.48s-.41.57-.86.27c-.11-.08-.4,0-.58.08a6.83,6.83,0,0,1-3.38.8c-.74,0-.77-.08-.36-.8-.28.08-.47.12-.65.19a17.9,17.9,0,0,1-1.84.71,2,2,0,0,1-1.08-.23c.66-.74,1.89-.64,2.35-1.55a1.54,1.54,0,0,0-.08-.19c-.56.16-1.13.31-1.69.48a7.34,7.34,0,0,1-3.21.5,4.23,4.23,0,0,1-1-.39v-.23l1.38-.51c2.61-.93,5.23-1.84,7.83-2.8a6,6,0,0,0,1.42-.89c.12-.1.14-.33.2-.5a1.61,1.61,0,0,0-.54-.17c-.53,0-1.05.1-1.57.11-.18,0-.35-.14-.52-.22.11-.14.19-.34.34-.43.58-.37,1.2-.67,1.76-1.05.3-.21.92-.42.6-.89s-.76-.05-1.13.14c-.74.38-1.47.81-2.24,1.15-.37.16-.73.09-.54-.49-1.12.21-2.1.92-3.44.73.2-.3.31-.51.46-.7.3-.4.25-.57-.26-.67a5.49,5.49,0,0,0-.91-.05c-1,0-2,0-2.93-.11-.33,0-.63-.32-1-.49.3-.22.58-.57.91-.64,1.88-.36,3.78-.58,5.65-1s3.63-.88,5.41-1.42a3,3,0,0,0,2-1.65l-2.8,1-.11-.2.34-.54-1.78.06-.07-.29,3.73-1.78-.07-.16-1-.12,2.39-2.16-.14-.2-1.68.84c-.74.37-1.46.76-2.22,1.08-.19.09-.5-.05-.75-.09v-.15c-.61.27-1.2.57-1.82.79-.36.13-.8.18-.68-.42l-1.45.22-.1-.23,1.51-1c-.84,0-1.63.11-2.43.09a3,3,0,0,1-.92-.31c.24-.2.46-.5.74-.59,1.75-.58,3.5-1.14,5.27-1.66a13.61,13.61,0,0,0,5-2.68,7.52,7.52,0,0,0,.62-.64,1,1,0,0,0,.12-.21l-2,.22.08-.52-1.89-.22,0-.2.65-.34c.87-.41,1.75-.8,2.61-1.25a4.34,4.34,0,0,0,.79-.64l-.12-.2-1.18.37c-.37.11-.68.14-.55-.47-.53.17-1,.34-1.44.46s-.86.25-1.2-.22c-.07-.1-.37-.07-.57-.1l-1-.11-.06-.2a8.57,8.57,0,0,1,.77-.45,13.57,13.57,0,0,0,4.57-3c.5-.53.92-1.13,1.46-1.8a2.88,2.88,0,0,1-.11.57,8.52,8.52,0,0,1-2.27,2.91,7.67,7.67,0,0,0-.74.77,1.54,1.54,0,0,0-.15.5,2.14,2.14,0,0,0,.51,0c.32-.12.63-.27,1-.43l0,.41.81-.27.06.09-.61.63.07.15,1.24-.37.14.16c-.37,1.1-1.6,1.49-2.31,2.27l.42.74c.28,0,.62-.13,1-.18.14,0,.37,0,.43.06a.57.57,0,0,1,0,.42,5.74,5.74,0,0,1-2.89,2.73c-1.68.82-3.44,1.49-5.16,2.22l-.33.14a3.44,3.44,0,0,0,1.12.56,3.77,3.77,0,0,0,1.23-.31,6.65,6.65,0,0,0,.69-.28l.17.24-.7.27.13.19a2.81,2.81,0,0,1,.49-.09c.18,0,.36.09.55.12a1.16,1.16,0,0,0,.55,0c.79-.32,1.56-.67,2.34-1,.27-.11.55-.18.93-.31a5.86,5.86,0,0,0,0,.78.53.53,0,0,0,.21.37.44.44,0,0,0,.39-.17c.22-.43.48-.32.81,0,0-.69.08-1.3.12-2a4.67,4.67,0,0,1-.91.31,2.25,2.25,0,0,1-.66-.12,1.8,1.8,0,0,1,.33-.47c.32-.27.67-.5,1-.74l-.08-.17-.9,0-.08-.14a13,13,0,0,0,1-.91,1.77,1.77,0,0,0,.45-.81,14.37,14.37,0,0,0,.12-1.64l-.92.07-.13-.16c.27-.34.55-.68.81-1,.12-.15.3-.3.32-.46.07-.72.1-1.45.14-2.25l-1.23.47-.15-.17a9.31,9.31,0,0,1,.84-1.21,2.13,2.13,0,0,0,.72-1.7,9,9,0,0,1,.06-1.13c-.42.07-.73,0-.65-.46l-1.23.71a2.28,2.28,0,0,1-.22-.22l1.32-1.58-.14-.17-1.86,1-.14-.17a8.54,8.54,0,0,1,.63-.72,7,7,0,0,0,2-2.83c.14-.45.37-.92-.11-1.34a.4.4,0,0,1-.05-.37,8.66,8.66,0,0,0,.76-3.6.58.58,0,0,1,.25-.4,2.29,2.29,0,0,1,.15.51c.06,1.44.08,2.88.18,4.32a6,6,0,0,0,.43,1.38c.09.26.22.52.36.85-.68,0-.6.35-.41.71.39.7.81,1.38,1.17,2.09a1.76,1.76,0,0,1,.09.62,3,3,0,0,1-.6-.19,6.11,6.11,0,0,1-.67-.46l-.2.09a2.32,2.32,0,0,0,.22.84c.44.64.94,1.24,1.44,1.85s1,1.08,1.42,1.65c.12.15.1.38.15.58a2.17,2.17,0,0,1-.63,0c-.61-.25-1.21-.54-1.81-.81a3.71,3.71,0,0,0-.56-.12,8.21,8.21,0,0,0,2.84,3.28c1.23.71,2.55,1.27,4,2-1,.49-1.8.12-2.72,0l.76,1a1.31,1.31,0,0,1-1.57-.13c-.35-.24-.63-.55-1-.79a1.94,1.94,0,0,0-.55-.15,1.35,1.35,0,0,0-.06.48c.09.46-.1.57-.54.45a3.67,3.67,0,0,0-1.06-.17c1.32,1.94,3.59,2.27,5.67,2.92l0,.25-1.78.27a2.44,2.44,0,0,0,1.58.8c1.66.31,3.32.55,5,.81l.27.05q.93-2.73,1.84-5.47c1.44-4.28,2.73-8.58,4.17-12.87q1.78-5.33,3.61-10.65c.85-2.47,1.8-4.92,2.56-7.4a13,13,0,0,1,2.47-5.3,9.5,9.5,0,0,1,5.44-1.11h6a.91.91,0,0,1,.46-.1l-.46.1a7.09,7.09,0,0,0,3.4-.43,4.22,4.22,0,0,0,.94-1.19,28.18,28.18,0,0,0,1.71-4.84C238,79.15,237.62,78,237.7,77Zm-28.63,38.39.36-.89A1.15,1.15,0,0,1,209.07,115.34Z"/><path class="cls-1" d="M130.78,157.91c.07.17.14.33.2.5l.16-.21c.14-.17.12-.24-.12-.28Z"/><path class="cls-1" d="M187.11,182.28c-.58-.26-.7-.93-.81-1.6a3.83,3.83,0,0,0-.27-1.06c-.61-1.26-.92-1.27-1.76-.28a5.1,5.1,0,0,1-1.38,1.26,8.65,8.65,0,0,0-3.33,4c-.36.71-.79,1.36-1.21,2h2.94l1,0c.7-1.91,1.38-3.8,2.09-5.76.38.92-.41,3.77-1.34,5.72a10.49,10.49,0,0,0,1.4-.19c.95-.2,2.16-.38,2.08-1.48h0l.84-2.5C187.25,182.38,187.19,182.32,187.11,182.28Z"/><path class="cls-1" d="M142,165.15c-.35-.18-.7-.36-1.06-.52a1.27,1.27,0,0,0-.34,0c0,.1,0,.23.12.28.44.27.89.52,1.35.77l.1.05.21-.46A.56.56,0,0,1,142,165.15Z"/><path class="cls-1" d="M147.94,186.19a18.43,18.43,0,0,0,1.39-5.66c0-.17,0-.33,0-.77a7.06,7.06,0,0,0-1.12.86c-.75.89-1.46,1.84-2.19,2.76a5.66,5.66,0,0,1-.43.42,21.88,21.88,0,0,0-1.59,1.73,2.55,2.55,0,0,1-.8.66,1.67,1.67,0,0,0,.32.08,22.86,22.86,0,0,0,3.52.41h.71A2.53,2.53,0,0,1,147.94,186.19Z"/><path class="cls-1" d="M141.29,166.22c-.16-.07-.34-.21-.51-.06s.14.27.27.35l.48.26c.08-.1.15-.22.23-.33Z"/><path class="cls-1" d="M168.68,184.79s0,0,0-.06a10.44,10.44,0,0,0-2.73-4.36,6.67,6.67,0,0,1-.81-3,25.81,25.81,0,0,1-.15-3.06,1,1,0,0,0-.74-1.08c-.25-.1-.45-.43-.63-.7a10.88,10.88,0,0,0-1-1.44c-.39-.38-.81-.32-1.2.26-.55.84-1.19,1.6-1.81,2.37A8.85,8.85,0,0,0,157.9,177c-.48,1.67-1.09,3.28-1.69,4.89a8.29,8.29,0,0,1-.85,1.4l-.2-.12a2.94,2.94,0,0,1,0-.6c.72-2.17,1.52-4.31,2.14-6.53a12.35,12.35,0,0,1,2.23-3.84,4.47,4.47,0,0,0,.92-3.46,3.32,3.32,0,0,0-.4.23c-.78.59-1.54,1.25-2.36,1.77-2.36,1.52-4.12,3.92-5.8,6.42a5.05,5.05,0,0,0-.43,1.09c-.06.19,0,.46-.14.58-.77,1-.65,2.32-1,3.48a18.44,18.44,0,0,1-.8,2c-.07.18-.25.33-.26.5a3.68,3.68,0,0,1-.72,1.87l19.9,0c.14-.25.28-.51.4-.78S168.76,185.16,168.68,184.79Zm-6,1.76a33.12,33.12,0,0,1-1.44-10.81,6.58,6.58,0,0,1,.48,1,3.77,3.77,0,0,1,.15,1.11c-.13,2.54.54,4.9.91,7.32A3.62,3.62,0,0,1,162.73,186.55Z"/><path class="cls-1" d="M142.55,178.41c0-.1-.37-.48-.45-.43q-1.07.71-2.13,1.44a7.42,7.42,0,0,0,.75,1l.62,2.09a3.38,3.38,0,0,1,.22-.47A9.63,9.63,0,0,0,142.55,178.41Z"/><path class="cls-1" d="M135.3,166.34c0,.18-.09.36-.12.54a.39.39,0,0,1-.4.34.35.35,0,0,0-.11,0l0,.09c.32.85.67,1.69,1,2.53,0-.51.06-1,.1-1.55a1.87,1.87,0,0,0-.13-.93C135.55,167.05,135.48,166.69,135.3,166.34Z"/><path class="cls-1" d="M188.25,168.72a11.26,11.26,0,0,0-.56-2.31c-.62.57-1.07,1-1.53,1.41-1.38,1.23-2.75,2.51-4.18,3.65a3.8,3.8,0,0,0-1.51,2.33,11.12,11.12,0,0,1-3.07,5.77,24.36,24.36,0,0,0-1.7,2.15,21,21,0,0,1-1.57,1.68c-1.14,1.08-2.28,2.14-3.44,3.18l-.09.08h3.68a3,3,0,0,1,.77-1c1-.78,2-1.38,3-2.18a28.31,28.31,0,0,0,2.18-2.2,4.81,4.81,0,0,1,.45-.53,23.23,23.23,0,0,0,4.89-4.91c.9-1.24,1.28-1.17,2.3-.07.47.5.95,1,1.44,1.49.46-1.33.87-2.67,1.29-4-.48-.73-.92-1.49-1.44-2.16A3.73,3.73,0,0,1,188.25,168.72Zm-4.65,6.39v-1c-1.42.79-1.95,2.42-2.58,3.93l-.21-.14a13.3,13.3,0,0,1,.46-2.07,6.17,6.17,0,0,1,2.41-3.22,9,9,0,0,0,1.76-1.9c.37-.44.72-.92,1.18-1.53C186.53,170.63,184.43,174.63,183.6,175.11Z"/><path class="cls-1" d="M175.37,186.66h1.8a10.79,10.79,0,0,0,1-2A6.5,6.5,0,0,0,175.37,186.66Z"/><path class="cls-1" d="M138.72,168.7a1.27,1.27,0,0,1-.36-.2c-.13-.08-.24-.19-.37-.27s-.33-.12-.4.12-.2.31-.44.11-.33-.33-.51-.49a1,1,0,0,0-.21-.1.66.66,0,0,0-.11.2q-.06,1.13-.09,2.25c0,.17-.07.23-.21.23.21.48.41,1,.62,1.45a9,9,0,0,0,2.21-2.84A2.83,2.83,0,0,1,140,168a1,1,0,0,1-.44-.28,1.42,1.42,0,0,0-.6-.3c-.26-.08-.39,0-.3.26s.25.5.37.75c0,.05,0,.16,0,.18A.47.47,0,0,1,138.72,168.7Z"/><path class="cls-1" d="M25.05,123.46l.67-1.55-.11-.09-3,2.25-.09-.18c0-.07,0-.16,0-.19,1-.84,1.86-1.74,2.84-2.48A10.48,10.48,0,0,0,28,118.13a10.66,10.66,0,0,1,1.06-1.33c.53-.63,1.08-1.24,1.6-1.89A1.88,1.88,0,0,1,32.4,114c.83.12,1.35-.35,1.77-1.26a3.51,3.51,0,0,1,.95-1.24,8.56,8.56,0,0,0,2.55-3,2.52,2.52,0,0,1,1.07-1,4.51,4.51,0,0,0,2-2.54,3.9,3.9,0,0,1,.67-1.09c.59-.73,1.23-1.4,1.83-2.13s.76-.65,1.2,0a17.23,17.23,0,0,0,3.06,3.39c.57.5.62.47,1-.23a24.81,24.81,0,0,1,1.53-2.3c.2-.26.53-.34.8-.52a4.69,4.69,0,0,0,1.28-.92c.75-1,1.4-2.09,2.13-3.11a3.84,3.84,0,0,1,.95-1A13,13,0,0,0,60,91.77c.32-.69.66-.72,1.11-.14a11,11,0,0,1,1,1.35A26.46,26.46,0,0,0,66,98a17.81,17.81,0,0,1,3,4.82,20.35,20.35,0,0,0,4,5.4c.57.6,1,.55,1.59-.12,1.25-1.3,2.46-2.65,3.69-4,.13-.15.25-.31.38-.44.54-.51,1-.29,1.36.45a11.1,11.1,0,0,0,1.12,2c.71,1,1.49,1.84,2.23,2.76A11.49,11.49,0,0,0,87,112.08,3.8,3.8,0,0,1,88.62,114a9.52,9.52,0,0,0,3.61,3.86A7.44,7.44,0,0,1,95,121c.64,1.37,1.39,2.65,2.09,4,.06.11.1.25.16.39-1,0-2.06,0-3.06-.17a2.28,2.28,0,0,1-1-.58c-.63-.5-1.21-1.1-1.86-1.54a6.89,6.89,0,0,1-2-2.38,2.2,2.2,0,0,0-.84-.87,3.16,3.16,0,0,1-1.1-1.21,19,19,0,0,0-1.75-2.29.69.69,0,0,0-.59-.19,3.06,3.06,0,0,1-2.62-1.4,27.39,27.39,0,0,1-1.77-2.59c-.43-.65-.82-1.36-1.28-2a3.25,3.25,0,0,1-.73-2,10.63,10.63,0,0,0-.46-2c-.52.48-.89.85-1.27,1.19-1.15,1-2.28,2.13-3.47,3.1a3.18,3.18,0,0,0-1.26,2,9.45,9.45,0,0,1-2.55,4.89,18.83,18.83,0,0,0-1.41,1.83A16.08,16.08,0,0,1,67,120.59c-.94.91-1.89,1.8-2.85,2.69-.76.7-1.52,1.38-2.3,2a1.84,1.84,0,0,1-.6.24l-.13-.2c.2-.33.41-.64.6-1a14.81,14.81,0,0,0,.93-1.71c.09-.21-.1-.61-.16-.92,0,0,0,0,0-.06A8.77,8.77,0,0,0,60.13,118a5.86,5.86,0,0,1-.67-2.52,22.14,22.14,0,0,1-.12-2.59.87.87,0,0,0-.62-.91,1.64,1.64,0,0,1-.52-.6,9.15,9.15,0,0,0-.79-1.22c-.32-.32-.67-.26-1,.23a24.93,24.93,0,0,1-1.51,2,7.47,7.47,0,0,0-1.42,2.73c-.4,1.42-.91,2.79-1.41,4.15a8.84,8.84,0,0,1-.7,1.19l-.18-.1a2.11,2.11,0,0,1,0-.51c.59-1.85,1.26-3.66,1.77-5.54a10.82,10.82,0,0,1,1.85-3.25,3.82,3.82,0,0,0,.76-2.93c-.13.08-.23.12-.32.19-.66.51-1.29,1.06-2,1.51a18.09,18.09,0,0,0-4.82,5.44,4,4,0,0,0-.36.92c0,.16,0,.39-.11.49-.64.82-.54,2-.81,2.94a17,17,0,0,1-.67,1.72c-.06.15-.21.28-.22.42-.08,1.16-.79,1.76-1.26,2.57l-.16,0a7.28,7.28,0,0,1,.29-1.36,15.91,15.91,0,0,0,1.15-4.8c0-.14,0-.28,0-.65a6,6,0,0,0-.93.73c-.62.75-1.21,1.56-1.81,2.34-.11.13-.24.23-.36.36A18.48,18.48,0,0,0,42,122.39a2.75,2.75,0,0,1-3,.8,9.64,9.64,0,0,1,.9-.59,4.31,4.31,0,0,0,1.86-1.79,2.56,2.56,0,0,1,.65-.7,8.2,8.2,0,0,0,2-2.79c.24-.48.75-.76,1.14-1.11a10.85,10.85,0,0,0,1.58-1.38c1-1.25,1.84-2.73,2.88-3.9a27.62,27.62,0,0,1,3-2.56c.58-.51,1.15-1,1.71-1.57.18-.17.32-.42.5-.61.93-1,1.53-.86,2.22.41a18.87,18.87,0,0,0,1,1.77,3.84,3.84,0,0,0,1.1,1.13,8.17,8.17,0,0,1,3,3.92,6.35,6.35,0,0,0,1,1.7,25.41,25.41,0,0,0,2.32,2.11c.71.6,1.41.31,1.83-.69.07-.17.12-.36.19-.54a.56.56,0,0,0-.25-.84,2.31,2.31,0,0,1-.83-.89,10.9,10.9,0,0,1-1.3-5.13,7.06,7.06,0,0,0-1.61-4.71,2.19,2.19,0,0,1-.42-1.61,3.91,3.91,0,0,0-.93-2.89,7.51,7.51,0,0,1-.84-2c-.18-.48-.32-1-.51-1.45s-.51-1.16-.73-1.75-.42-.63-.79-.24c-1.1,1.14-2.18,2.33-3.35,3.34a8.2,8.2,0,0,0-2,2.08c-.12.21-.23.43-.32.61l2.71,1.36c-.22.18-.27.25-.3.24-1.56-.39-3,.45-4.53.68a2.22,2.22,0,0,0-1.54,1.28c-.84,1.57-1.66,3.15-2.49,4.72-.18.33-.38.63-.66,1.11v-1.21a3.32,3.32,0,0,0-2,1.59c-.83,1.27-1.63,2.55-2.39,3.89-.37.64-.6,1.43-.92,2.12-.51,1.11-1,2.2-1.57,3.27a.66.66,0,0,1-.57.32,2.28,2.28,0,0,1,.2-.45,8.41,8.41,0,0,0,.82-3c0-.09-.31-.41-.37-.37-1.11.75-2.2,1.53-3.29,2.32-.16.12-.27.35-.43.47a4,4,0,0,0-1.36,3,10.81,10.81,0,0,1-.31,1.48l-.14,0,.28-2.63a3.22,3.22,0,0,0-1.65,1.2,5,5,0,0,1-3,1.9c-.06,0-.14,0-.3-.09a3.77,3.77,0,0,1,.45-.45c1.88-1.26,3.25-3.3,4.69-5.24a57.06,57.06,0,0,1,6-7.25,5.71,5.71,0,0,1,1.07-.85,3.53,3.53,0,0,0,1.48-3.25,33.61,33.61,0,0,0-.35-3.57,3.31,3.31,0,0,0-1.45,1.57c-.46.9-.8,1.91-1.3,2.78a3.11,3.11,0,0,1-1.15,1.13A4,4,0,0,0,38,110.35a4.85,4.85,0,0,1-2.05,2.27,7.53,7.53,0,0,0-1.49,1.45.81.81,0,0,0,0,1c.16.29.27.62.38.87a7.83,7.83,0,0,0-1.92-.78,3.18,3.18,0,0,0-2.63,1.35c-.73.78-1.35,1.74-2,2.62l-.27.38c-.84,1.08-1.87,1.92-2.34,3.44-.08.26-.33.43-.49.64Z"/><path class="cls-1" d="M68.88,125.89c-.18-1.89,1-2.83,1.4-4.21-1.54.47-2.49,2-3.68,3.13a4.07,4.07,0,0,1,1.12-2.33c.8-.66,1.68-1.17,2.47-1.84a24.56,24.56,0,0,0,1.8-1.87,5.74,5.74,0,0,1,.38-.44,19.88,19.88,0,0,0,4.06-4.17c.74-1,1.06-1,1.91-.06s1.59,1.68,2.41,2.47a1,1,0,0,0,.75.22,2.56,2.56,0,0,1,2.31,1.06,8.91,8.91,0,0,0,2,1.45,9.47,9.47,0,0,1,.81.74,8.73,8.73,0,0,1,.81.8c1,1.16,2,2.31,3,3.53A4.63,4.63,0,0,1,91,126c-1-.91-1.77-2.13-3-2.73-.15,1,.47,1.51.66,2.22l-.13.14a9.22,9.22,0,0,1-.94-1.45,6.49,6.49,0,0,0-2.27-2.83l-2.39-1.7c-.18-.12-.37-.19-.73-.38a4.26,4.26,0,0,0,.29.87c1,1.37,1.93,2.71,2.89,4.07.25.34.49.68.73,1s.19.72-.2.88a2,2,0,0,1-1.9-.44,5.29,5.29,0,0,0-1.51-.74,5.17,5.17,0,0,1-3.57-3.59,2.57,2.57,0,0,0-1.17-1.68c-.48-.22-.59-.79-.68-1.36a3.6,3.6,0,0,0-.22-.9c-.51-1.07-.76-1.08-1.46-.23a4.56,4.56,0,0,1-1.15,1.06,7.39,7.39,0,0,0-2.77,3.42c-.36.73-.81,1.4-1.23,2.08S69.38,125.08,68.88,125.89Z"/><path class="cls-1" d="M60.23,98.43c.06.4.13.79.17,1.2A11.35,11.35,0,0,0,61.53,104a37.24,37.24,0,0,1,1.6,4.06,3.06,3.06,0,0,1,.07,1.26,12.65,12.65,0,0,0-2-3.86c-.41,1.13.1,2.17,0,3.36a2.29,2.29,0,0,1-.61-1.61c.15-2.32-.58-4.48-.66-6.75,0-.68,0-1.36,0-2Z"/><path class="cls-1" d="M74.82,113.56v-.86c-1.18.67-1.62,2.06-2.14,3.33l-.18-.12a12.05,12.05,0,0,1,.38-1.75,5.23,5.23,0,0,1,2-2.72,8.19,8.19,0,0,0,1.46-1.61c.31-.38.59-.79,1-1.3C77.25,109.76,75.51,113.15,74.82,113.56Z"/><path class="cls-1" d="M56.3,114.1a5.2,5.2,0,0,1,.39.84,3.35,3.35,0,0,1,.13,1,31.29,31.29,0,0,0,.76,6.2,3.08,3.08,0,0,1-.09,1.16A28.66,28.66,0,0,1,56.3,114.1Z"/><path class="cls-1" d="M73.13,124.92l2.3-6.48C75.92,119.63,74.13,124.64,73.13,124.92Z"/><path class="cls-1" d="M36.88,93a8.08,8.08,0,0,0,3.32,2.76c-.43.34-.77,0-1.13,0,0,.32-.13.37-.32.26s-.52-.34-.77-.51c-.1-.07-.18-.16-.28-.22a.54.54,0,0,0-.18,0c0,.07,0,.17,0,.2a3.55,3.55,0,0,0,.63.65c.85.49,1.72.94,2.59,1.39.29.16.6.28.9.43a1.72,1.72,0,0,1,.2.15c-.57.43-1.09-.07-1.68,0l.19.33c.1.18.06.32-.13.35a.78.78,0,0,1-.4-.06c-.25-.13-.49-.3-.74-.44L38.75,98c.12.31,0,.36-.18.33s-.43-.12-.65-.18l-.42-.13-.06.11c.11.12.19.29.32.36a8.66,8.66,0,0,0,1.32.6c.56.18,1.15.21,1.7.39a7.8,7.8,0,0,1,1.26.63c.06,0,.08.14.11.22l-.21.1-.27.13c0,.08.08.2.15.25a3.27,3.27,0,0,0,.5.32l.27.17c-.31.45-.82.37-2-.27-.11.3-.27.24-.46.11s-.58-.41-.89-.59a.68.68,0,0,0-.29,0c0,.11,0,.27.1.32.37.31.74.6,1.12.88s.62.41.92.64c.07,0,.1.17.14.25a.61.61,0,0,1-.25.08,2.44,2.44,0,0,1-.46-.14c0,.36,0,.42-.32.28s-.47-.29-.72-.43-.28-.24-.42-.06.11.32.22.41c.41.32.84.62,1.26.92l.83.61a1,1,0,0,1-1.08.24c-.31-.1-.6-.28-.91-.41a3.55,3.55,0,0,0-.47-.08l0,.1c.1.12.2.22.29.35a.65.65,0,0,1,.06.21c-.07,0-.15.09-.21.08-.37-.12-.77-.15-1-.55a1,1,0,0,0-.49-.34c-.22-.08-.33.06-.26.31s.2.57.29.86c0,.06,0,.19,0,.21a.28.28,0,0,1-.24.06.89.89,0,0,1-.3-.22c-.11-.09-.2-.21-.31-.3s-.27-.15-.34.14-.17.36-.37.13-.27-.37-.42-.56a.71.71,0,0,0-.17-.11.67.67,0,0,0-.1.23c0,.87-.09,1.75-.12,2.62,0,.24-.09.3-.29.27s-.16-.14-.15-.28c.05-.77.09-1.54.14-2.31a2.82,2.82,0,0,0-.09-1.08c-.12-.39-.18-.8-.32-1.22,0,.21-.08.42-.11.64s-.13.37-.34.4a.41.41,0,0,0-.37.34,1.42,1.42,0,0,1-.2.41.3.3,0,0,1-.2.13s-.06-.12-.09-.18l-.07-.12c-.08.11-.14.2-.21.28s-.31.47-.62.26c0,0-.16.1-.25.13s-.26,0-.4.08a1.5,1.5,0,0,1,.13-.44c.16-.25.35-.46.53-.69a.38.38,0,0,0,.1-.23,5.8,5.8,0,0,1-1,.49,5.44,5.44,0,0,1-1,.09l0-.12a3.59,3.59,0,0,1,.36-.32c.46-.34.93-.65,1.39-1a2.47,2.47,0,0,0,.44-.47s0-.14,0-.21-.12,0-.17,0c-.34.17-.68.36-1,.54s-.46.25-.69.35-.21,0-.32,0,.07-.2.12-.3a1.69,1.69,0,0,0,.16-.33c-.4.16-.78.35-1.18.48a2.28,2.28,0,0,1-.69.07c-.06,0-.11-.1-.17-.15s.09-.14.15-.17l.85-.41c.68-.34,1.37-.68,2-1a2.3,2.3,0,0,0,.43-.37,1.1,1.1,0,0,0-.82,0c-.26.08-.53.17-.8.24a1.74,1.74,0,0,1-.31,0l.34-.58a1.94,1.94,0,0,0-.38,0l-1.84.53a.94.94,0,0,1-.41,0c-.07,0-.13-.08-.19-.13s.08-.17.14-.2c.37-.22.74-.41,1.12-.62l.68-.41-.63-.34v-.11a.77.77,0,0,1,.25-.1,8.06,8.06,0,0,0,4.08-1.58,6.25,6.25,0,0,0,.5-.4l0,.06c-.15.18-.29.37-.45.54a5.1,5.1,0,0,1-1.58,1c-.34.16-.67.33-1,.51a1.81,1.81,0,0,0-.23.18v.08l.79.13c-.06.13-.11.2-.14.28a2.29,2.29,0,0,0-.07.28c.09,0,.19.06.27,0,.29-.07.58-.17.87-.25a3.87,3.87,0,0,1,.59-.13c.07,0,.15,0,.22.07a.93.93,0,0,1-.08.22l-.71.72-.48.5c.26.16.46,0,.68,0,.05.26.2.21.37.14a1.57,1.57,0,0,1,.34-.07c-.06.49-.49.75-.48,1.33l.77-.51a5.79,5.79,0,0,0-.09.62c0,.09,0,.23.07.26a.24.24,0,0,0,.24-.06,3.5,3.5,0,0,0,.39-.46.86.86,0,0,0,.1-.16c.27-.43.4-.45.68-.07a.34.34,0,0,0,0-.12c0-.76.08-1.53.13-2.29,0-.33,0-.38-.32-.25a.92.92,0,0,1-.25.06,1,1,0,0,1,0-.31,2.18,2.18,0,0,1,.58-1,.3.3,0,0,0,.06-.2c0-.4.06-.81.07-1.21s-.08-.38-.35-.3a.5.5,0,0,1-.21,0,.7.7,0,0,1,0-.25c.07-.11.17-.2.24-.31s.21-.29.31-.44l0-.09-.51.11a.6.6,0,0,1,.3-.56c.36-.18.39-.49.39-.85s0-.78.06-1.16,0-.48-.37-.33l-.16,0a1.09,1.09,0,0,1,.42-.7.74.74,0,0,0,.15-.75c-.09-.18-.19-.24-.37-.11a.7.7,0,0,1-.64.21l.16-.31,0-.07a2.85,2.85,0,0,0-.3.16c-.27.16-.52.34-.79.49a.35.35,0,0,1-.3,0,2,2,0,0,0-1.67.43s0,0-.05.12a2.13,2.13,0,0,0,.33.11,2.38,2.38,0,0,0,.37,0l-.08.31a2,2,0,0,0,.39-.06c.32-.1.62-.23.93-.33a.27.27,0,0,1,.36.12.38.38,0,0,0,.46.14,1,1,0,0,1,.29,0,1.57,1.57,0,0,1-.15.32c-.14.15-.3.28-.45.42l-.27.24c.24.21.53-.22.69.12h.06l.42-.12a3.78,3.78,0,0,1-.1.46.56.56,0,0,1-.59.43.47.47,0,0,0-.4.2,1.81,1.81,0,0,1-.5.42,8.09,8.09,0,0,1-.81.33,3.72,3.72,0,0,0-.34.19l0,.13a3,3,0,0,0,.52,0,3.56,3.56,0,0,0,.53-.16l0,.09-.48.49,0,.06.17,0a.82.82,0,0,1,.65,0c.13.08.33,0,.5,0a2,2,0,0,1,.31.08c0,.08,0,.18-.09.23s-.16.28-.34.13-.16,0-.23,0a2.44,2.44,0,0,1-1.34.4c-.3,0-.31,0-.14-.38l-.26.09a5.42,5.42,0,0,1-.73.35A.66.66,0,0,1,31,97c.26-.35.75-.31.94-.75l0-.09-.67.24a2.51,2.51,0,0,1-1.28.25,1.53,1.53,0,0,1-.39-.18V96.4l.55-.25,3.12-1.36a2.85,2.85,0,0,0,.56-.44s.06-.15.08-.24-.14-.08-.21-.07-.42,0-.62.06-.14-.07-.21-.11.08-.16.14-.2c.23-.18.48-.33.7-.51s.37-.2.24-.43-.3,0-.44.07c-.3.19-.59.39-.9.56-.15.08-.29,0-.21-.23-.45.1-.84.45-1.37.36.08-.14.13-.24.19-.33s.1-.28-.1-.32a1.45,1.45,0,0,0-.36,0c-.39,0-.78,0-1.16,0-.13,0-.25-.15-.38-.23.12-.11.23-.28.37-.31.74-.18,1.5-.29,2.24-.49a21.54,21.54,0,0,0,2.15-.7,1.26,1.26,0,0,0,.81-.8l-1.11.47-.05-.09.14-.26-.7,0,0-.14,1.48-.86,0-.08-.4-.06,1-1-.06-.1-.67.41c-.29.18-.58.37-.88.52-.08,0-.2,0-.3,0v-.07c-.24.13-.48.28-.73.39s-.31.09-.27-.2l-.57.11,0-.11.6-.5c-.33,0-.64.06-1,0a1.07,1.07,0,0,1-.36-.14c.1-.1.18-.24.29-.29.7-.28,1.4-.56,2.1-.81a5.28,5.28,0,0,0,2-1.3,2.6,2.6,0,0,0,.25-.31.3.3,0,0,0,0-.1l-.78.12,0-.25-.75-.1v-.09l.26-.17c.35-.2.7-.39,1-.6a3.11,3.11,0,0,0,.32-.31l-.05-.1-.47.18c-.14.06-.27.07-.22-.22a4.13,4.13,0,0,1-.57.22c-.16.06-.34.13-.47-.09,0,0-.15,0-.23,0l-.39,0,0-.09a3,3,0,0,1,.31-.22,5.69,5.69,0,0,0,1.83-1.43c.19-.25.37-.54.58-.86,0,.12,0,.2,0,.27a4.21,4.21,0,0,1-.92,1.4,3.37,3.37,0,0,0-.29.37.61.61,0,0,0-.07.24.49.49,0,0,0,.21,0c.13,0,.25-.13.39-.2V84l.32-.13,0,0-.25.31,0,.07.49-.18.06.07c-.15.53-.64.72-.93,1.09l.17.36.38-.1c.06,0,.15,0,.17,0s0,.14,0,.2a2.63,2.63,0,0,1-1.15,1.32c-.67.39-1.37.72-2.06,1.08l-.13.06c.17.11.3.25.44.26a1.16,1.16,0,0,0,.49-.15,2.39,2.39,0,0,0,.28-.13l.07.11-.28.13,0,.09a1.29,1.29,0,0,1,.19,0,2.25,2.25,0,0,1,.22,0c.07,0,.16,0,.22,0l.93-.48c.11-.06.22-.09.37-.16a2.7,2.7,0,0,0,0,.37c0,.07,0,.16.08.18s.14,0,.16-.08c.09-.21.19-.16.32,0l0-1a1.38,1.38,0,0,1-.36.16.88.88,0,0,1-.26-.06.86.86,0,0,1,.13-.23,4.47,4.47,0,0,1,.41-.35l0-.08-.35,0,0-.07c.14-.15.29-.28.42-.44a.93.93,0,0,0,.18-.39c0-.25,0-.51,0-.78l-.37,0,0-.08.32-.49a.56.56,0,0,0,.13-.22c0-.34,0-.69.07-1.07l-.49.23-.06-.08a5.45,5.45,0,0,1,.33-.58,1.16,1.16,0,0,0,.3-.82,4.88,4.88,0,0,1,0-.53c-.16,0-.28,0-.25-.22l-.49.34-.09-.1.53-.76-.05-.08-.74.51L35,81.19c.08-.11.16-.24.25-.34a3.45,3.45,0,0,0,.83-1.36c.06-.21.15-.44,0-.64a.2.2,0,0,1,0-.17A4.81,4.81,0,0,0,36.37,77a.31.31,0,0,1,.1-.2,1,1,0,0,1,.06.25c0,.68,0,1.37,0,2.06a2.6,2.6,0,0,0,.17.65c0,.13.08.25.13.4-.26,0-.24.18-.16.35.15.33.31.65.46,1a1,1,0,0,1,0,.3,1.09,1.09,0,0,1-.23-.09l-.27-.21-.08,0a1.67,1.67,0,0,0,.09.4c.17.3.37.59.56.87s.38.52.56.79a.72.72,0,0,1,.05.27.64.64,0,0,1-.24,0c-.25-.11-.48-.25-.72-.38l-.22-.05a3.71,3.71,0,0,0,1.11,1.55c.48.33,1,.59,1.56.91-.38.24-.71.07-1.08,0l.3.45a.44.44,0,0,1-.62-.06c-.14-.11-.25-.25-.38-.37a.81.81,0,0,0-.22-.07.62.62,0,0,0,0,.23c0,.22,0,.27-.22.22a1.16,1.16,0,0,0-.42-.08c.51.92,1.41,1.07,2.23,1.37v.12l-.71.14a.93.93,0,0,0,.63.37c.65.14,1.31.25,2,.36l.18,0a.65.65,0,0,1-.63.34c-.23,0-.46,0-.73.06.11.17.21.3.29.44s.07.16,0,.19-.13.12-.18.1a1.56,1.56,0,0,1-.41-.2c-.13-.08-.25-.17-.39-.27-.1.38-.12.39-.41.27L38,89.24l-.05.06.61.63c-.53.18-.82-.27-1.27-.43l.27.4,0,.08-.72-.16c.24.25.43.47.64.65a5.67,5.67,0,0,0,2.15,1.14c.67.21,1.36.36,2,.55a1,1,0,0,1,.23.18c-.08,0-.17.16-.26.16-.27,0-.55,0-.82,0l-.78,0c.2.42.6.5.82.83-.3.22-.58.08-.85,0s-.54-.23-.81-.33a1.65,1.65,0,0,0-.32-.06l0,.08.62.47c-.39.25-.66,0-.95-.14,0,0,0,0,0,0l0,.3a.8.8,0,0,1-.27,0c-.27-.16-.52-.35-.78-.52s-.31-.16-.47-.24Zm.9-1.61-.57-.65c-.3-.36-.61-.71-.89-1.09a.49.49,0,0,1-.09-.36c0-.08.2-.12.31-.13s.42,0,.63,0c.49,0,.52-.08.33-.56,0,0,0,0,0-.07.36-.11.7.3,1.06.08L36.8,87.19l0,.06c0,.17,0,.33,0,.49s-.1.32-.28.23a5.53,5.53,0,0,1-.52-.36c.06.41-.15.82.08,1.2a.27.27,0,0,1,0,.17,1.93,1.93,0,0,0-.11.34c0,.37,0,.75,0,1.13s0,.51.22.66c0,0,0,.08.07.17l-.32-.09c0,.29,0,.55,0,.81s.07.3.24.18a.33.33,0,0,1,.4,0,4.83,4.83,0,0,0,.69.33.54.54,0,0,0,.45,0,.46.46,0,0,1,.38-.09,1.22,1.22,0,0,0,.27,0c.05,0,.09-.05.14-.08s0-.12-.08-.15-.27-.2-.4-.3l-.44-.36Zm-2.29,9c0,.13,0,.29,0,.46l-.09,2.48c0,.19.07.42.23.34s.38,0,.56.09a1,1,0,0,0,.26.08,1.94,1.94,0,0,0,0-.34,2.12,2.12,0,0,0-.14-.31,7.61,7.61,0,0,1-.31-.79c-.09-.31,0-.47.32-.41s.33.11.49.16.32,0,.28-.3,0-.23-.07-.39c.12,0,.21,0,.28.08s.43.22.64.31a.49.49,0,0,0,.21,0l.38,0h.23a3.16,3.16,0,0,0-1.56-1.53l0,.1c0,.1,0,.26-.09.28a.33.33,0,0,1-.28-.09c-.14-.14-.25-.33-.39-.48a1.84,1.84,0,0,0-.26-.24l-.1.64Zm1.88-3.86a1.67,1.67,0,0,1-.4-.19c-.14-.11-.23-.28-.36-.4a.78.78,0,0,0-.22-.12,1.24,1.24,0,0,0,0,.27c.06.24.14.47.2.7a.26.26,0,0,1,0,.22.24.24,0,0,1-.22,0,.83.83,0,0,1-.24-.22c-.09-.12-.16-.26-.26-.42l-.09.2a5.06,5.06,0,0,0-.18,1.55.23.23,0,0,0,.06.16,7.36,7.36,0,0,0,.83.54c.11,0,.27,0,.41,0a2.12,2.12,0,0,0,0-.44c-.06-.2-.18-.38-.25-.58s0-.29.19-.24.28.11.42.15a7.51,7.51,0,0,0,.82.19c.16,0,.34,0,.32-.28s.08-.22.21-.2l.57.1c0-.09,0-.15-.06-.18A5.07,5.07,0,0,0,37.51,96s-.14,0-.21,0ZM36,93.09c-.09.35-.2.68-.26,1s0,.47,0,.71,0,.28.19.33a3,3,0,0,0,.32.1c.45.07.59-.08.59-.59s0-.49.42-.46c.12,0,.17,0,.15-.17s-.36-.61-.57-.55-.53-.07-.68-.36Zm.28-9.81h0a5,5,0,0,0,0,1.21c.05.21,0,.78.54.58l0,0c.18.25.48.11.71.25.05,0,.15,0,.23-.07a.93.93,0,0,0-.1-.25c-.27-.38-.55-.75-.81-1.12a.93.93,0,0,1-.1-.2l-.24.15Zm-.9,7.62c.11-.14.27-.24.29-.36,0-.51.05-1,.06-1.52,0-.08-.08-.16-.13-.24l-.08,0a2.63,2.63,0,0,1,0,.49.51.51,0,0,1-.16.23s-.1-.08-.16-.11a.3.3,0,0,0-.16-.08,1.7,1.7,0,0,0-.92.88,1.18,1.18,0,0,0,.28,0l.55-.23a1,1,0,0,1,.24,0,1.37,1.37,0,0,1,0,.28,4.37,4.37,0,0,1-.23.49l.06.07.32-.17Zm.94-9.57a2,2,0,0,0-.07.25c0,.28,0,.55,0,.83a.54.54,0,0,0,.6.45Z"/></g></svg>